<svg width="500" height="500" viewBox="0 0 500 500" fill="none" xmlns="http://www.w3.org/2000/svg">
<path d="M490.7 138.9C489.3 147.7 487.4 152.1 485.3 157C483.1 162.4 480.5 168.4 478.2 180.6C477.3 185.5 476.9 189 476.5 192.2V192.3V192.4C475.9 197.5 475.5 200.8 473.5 206.9C471.9 211.8 469 220.1 462.4 228.9C457 236 447.9 248 435.9 249.4C434.9 249.4 432.7 249.5 431.7 249.1C397.6 231.6 368.2 218.7 358.1 215.8C346.2 212.5 347.8 186.7 349.1 164C349.7 153.9 350.3 144.2 349.8 136.1C348.2 107.5 343 76.1001 318.1 60.7001C303.3 51.7001 284 49.0001 265.7 49.0001C269.2 47.4001 272.9 45.2001 277 42.8001L277.1 42.7001C287.9 36.5001 301.4 28.7001 314.7 27.2001C319 26.8001 323.4 26.3001 327.6 25.8001C354.5 22.8001 377.8 20.2001 402.2 28.5001C413.3 32.3001 436.2 45.0001 442 56.8001C446.2 65.2001 453.1 71.7001 467.2 84.6001C474.4 91.4001 479.2 95.3001 482.8 98.2001L482.9 98.3001C487.8 102.3 488.8 103.2 490.3 106.3C494.6 115.5 493 125.3 490.7 138.9Z" fill="white"/>
<path d="M365.7 256.5C367.7 257.2 368.4 259.5 367.3 261.3C363.7 266.8 359.6 274.2 354.9 283.1C352.6 287.4 350.3 291.6 348.4 294.8C341.7 306.2 341.3 315.8 340.9 323.4C340.5 331.5 340 335.1 335.3 338.3C331.4 340.9 327.3 341.8 299.1 346.1C294.2 346.8 292 347.8 290.1 348.7C289.8 348.8 289.5 349 289.2 349.1C287.3 350 285.3 348.2 285.4 346.1C285.5 342.2 285.7 337.4 285.7 331.3V330.1C285.8 324.6 285.6 320.1 285.4 316.5C285 309.3 285 306.2 286.8 303.2C289.1 299.4 291 298.3 294 296.4C298.2 293.8 304 290.2 312.5 278.3C317 272.1 318 268.8 318.7 265.9C319 264.7 319.1 264.3 322.6 261.6C326.4 258.9 337.5 250.3 352 252.6C355.9 253.5 360.7 254.8 365.7 256.5Z" fill="white"/>
<path d="M254.7 386.4C254.1 387.3 253.4 387.6 252.4 387.6C249.5 387.7 247.3 387 246 385.3C243.1 381.8 243.5 374.7 244.1 370.5L256 367.3C256.8 373.8 257.3 382.9 254.7 386.4Z" fill="white"/>
<path d="M255.5 343.6C255.4 345.3 255.1 347.2 255.1 349.4C255.1 350.1 255.1 351 255.1 351.7C255.1 353.6 255.2 356.8 255 358.1C251.2 359.4 248.1 359.4 244 359.4C244 358.2 244 356.4 244 355.2C244 354.3 244.1 353.3 244.1 352.5C244.1 351.5 244.1 350.5 244.1 349.6C244.1 347.3 244.1 343.5 244.7 342.5C245.9 342.4 247 342.1 248.2 341.8C250.7 341.2 253.8 340.6 255.9 340.9C255.8 341.4 255.7 342.6 255.5 343.6Z" fill="white"/>
<path d="M233.5 382.8C232.9 388.9 231 396.4 225.3 397.6C222.7 398.2 221.5 397.3 220.7 396.6C216.8 393 216.2 382.3 216.8 374.5C219.4 374.5 222.7 373.9 226.8 373.2C229.3 372.8 231.7 372.2 233.6 371.8C233.8 374.5 234 378.6 233.5 382.8Z" fill="white"/>
<path d="M230.8 360.9L217.9 365.4C218.6 360.3 219.5 353.4 219.8 348.6C220.1 345.3 221 344.3 221.2 344.1C221.3 344 221.5 343.8 221.9 343.8C222 343.8 222 343.8 222.2 343.8H222.5L230.6 343.4C230.9 347.3 230.9 355.7 230.8 360.9Z" fill="white"/>
<path d="M210 356.9C209.3 358.8 208.4 364.3 207.8 368.2L191.6 367.8C192.5 362.7 193.8 357.7 195.2 353.6C196.6 349.5 198.1 346.5 199.5 345.6C201.1 344.6 204.7 344.4 206.9 346.3C210.5 349.4 211.6 352.8 210 356.9Z" fill="white"/>
<path d="M204 406.4C202.7 408.1 201.4 409 199.7 409.1C198 409.2 196.5 409 195.5 407.9C190.4 403.3 190.9 387.9 191 380.6C197.7 379 204.9 377.7 208.4 377.6C208.8 383.6 209 399.6 204 406.4Z" fill="white"/>
<path d="M182.9 367.3C182.2 369.5 181.3 371.3 180.7 373.1C178.8 373.7 173 373.2 167.2 371.9L171.2 346.4C177.9 344.7 185.5 344.1 187.4 346.1C189.9 348.8 184.9 361.8 182.9 367.3Z" fill="white"/>
<path d="M175.5 410.3C172.3 414.2 167.7 415.9 161.2 415.9C156.7 415.8 155 414.2 154.3 412.9C150.7 407.1 154.2 393.5 157.8 384.8L179.6 386.1C179.9 387.7 180 389.4 180 391.5C180.3 397.5 179.6 405.3 175.5 410.3Z" fill="white"/>
<path d="M356.5 225.7C336.8 220.1 338.6 191.3 340.2 163.5C340.8 153.7 341.4 144.3 340.9 136.7C339.5 110.7 335 82.3 314 69.4C291.4 55.7 254.6 58.7 231.8 61.6C223.4 64.1 215.6 65.8 209.7 65.5C196.2 64.8 185.8 59.1 176.6 54.2C169.4 50.3 163.1 47 157.2 47C156.9 47 156.6 47 156.2 47C138.6 48.2 130.5 52.5 123.1 59C121.2 60.6 119.1 65.4 111.5 86.8C107.7 97.5 107 103.4 106.4 109.2C105.8 114.4 105.1 119.8 102.4 127.9C100.5 133.4 99.1 138.2 97.6 142.8C94 155.1 91.1 164.6 82.4 176.2C81.4 177.5 80.1 179.5 78.6 181.8C76.6 184.8 74.3 188.7 70.9 193.2C68.6 196.4 63.4 208.1 63.7 211.7C64.1 217.3 66 221 68 225C70.2 229 72.5 233.7 72.9 240V241C73.6 251.1 72.2 256.2 53.1 273.3C40.8 284.3 32.1 294.9 26.2 302.7C25.6 303.4 26.3 304.4 27.2 304.3C27.3 304.3 27.6 304.3 27.8 304.3C28.2 304.3 28.5 304.3 29 304.3C29.5 304.3 29.7 304.3 30.2 304.3C30.7 304.3 30.9 304.3 31.4 304.4C36 305 40.5 306.9 43.8 310.3C44.4 310.9 45.2 311 46 310.7C49.2 309.4 52.5 309.5 55.8 310C59.7 310.4 63.6 311.4 66.4 313.9C67.4 314.8 68.9 315.3 70.2 315.1C73.2 314.5 76.4 314.5 79.5 315.7C81.7 316.6 83.5 317.7 85.1 319.3C86.5 320.7 89 321 90.7 320C91.4 319.6 92.1 319.3 93 319C97.2 317.6 101.8 318.4 105.9 319.9C107.9 320.6 109.9 321.2 111.8 322.5C114.8 324.5 116.7 327.3 118 330.5C119 333 122.3 333.7 124.4 332.2C127 330.3 129 330.2 131.2 331C132.1 331.4 132.8 331.9 133.2 332.4C134.8 334.1 137.1 335.9 139.4 335.4C145.8 334 153.3 335 158.9 337.9C160.9 339.1 162.9 340.6 164.5 343.1L164.6 341.9C164.7 341.5 165 341 165.5 340.9L166.8 340.5C170 339.5 186.3 334.9 192.5 341.5C192.8 341.8 193.2 341.8 193.5 341.5C194.4 340.5 195.1 340.1 195.5 339.8C199.7 337.3 206.6 337.2 211.4 341.1C212.4 341.8 213.9 341.5 214.6 340.7C215 340.1 215.5 339.5 216 339.1C217.6 337.7 219.8 336.9 222.1 337.1L231.1 336.7C233.4 336.6 240.4 336.1 242.5 335.7C242.6 335.7 242.8 335.7 243.1 335.6C244 335.5 245.1 335.2 246.3 335C250.6 334 255.6 333 259.6 334.9C263.5 336.6 262.9 341.1 262.5 345C262.4 346.6 262.1 348.2 262.1 349.8C262.1 350.5 262.1 351.2 262.1 352C262.1 355.3 262.2 358.5 261.5 360.8L261.9 362.7C262.3 364.6 264.2 365.6 265.8 364.6C268.8 362.7 271.9 360.4 272.9 359C273 358.9 273 358.7 273 358.6C273.1 358.2 273.4 357.4 273.7 355.9C274.3 352.6 274.9 345.8 274.9 332.2C274.9 331.5 274.9 330.9 274.9 330.8C275 325.7 274.8 321.7 274.6 318.1C274.2 310.7 273.9 304.8 277.6 298.9C281.2 293.1 284.7 290.9 288 288.8C291.9 286.3 296.2 283.6 303.8 273.5C307.4 268.4 307.8 266.4 308.3 264.8C309.2 261 310.3 258.7 316 254.5C320.6 251 334.5 240.5 353.2 243.7C359.4 244.7 369.3 248 379.1 251.9C379.4 252 379.8 252.2 380.1 252.3C380.2 252.4 380.4 252.4 380.5 252.6C389 255.9 397.3 259.8 402.8 262.9C404.4 263.8 406.3 263.2 407.4 261.9C409.1 259.9 410.9 258.6 412.9 257.4C413.6 257 414.3 256.5 414.9 256.1C416.8 254.5 416.8 251.2 414.6 250.2C389.2 235.5 364.6 228 356.5 225.7ZM168.7 231.8C162.6 258.4 121.3 287.8 102.5 287.8H102.1C101.8 287.8 101.5 287.8 101.1 287.7C100.8 287.7 100.4 287.6 99.9 287.4C99.8 287.4 99.5 287.3 99.3 287.3C95.8 286.3 91.2 283.5 87.6 280.1C85.1 277.6 83.3 274.9 82.5 271.7C82.4 271.1 82.2 270.7 82.2 270.1C81.2 265.6 79.9 259.8 83.9 250.6C84.5 249.3 84.9 248.1 85.3 247.1C85.4 246.8 85.6 246.4 85.7 246.1C86.1 245.1 86.6 244.2 86.9 243.4C87.5 242 87.9 240.8 88.3 239.8C88.4 239.4 88.6 239.1 88.7 238.6C89.9 235.4 90 234.3 90.1 233C90.2 232 90.4 230.8 90.8 229.1C92 224 92.5 219.8 93.1 216.1C94.1 209.3 94.8 203.5 98.6 198C99.2 197.1 99.9 196.3 100.6 195.5C100.9 195.2 101.2 195.1 101.5 194.8C101.8 194.5 102.1 194.4 102.4 194.1C103.3 193.5 104.3 192.9 105.3 192.5C105.6 192.4 106 192.2 106.3 192.1C107 191.8 107.7 191.7 108.6 191.4C111.9 190.5 116 190.4 120.5 191C125.6 191.4 130 192.3 134.2 193.5C137.7 194.5 140.7 195.5 143.3 196.5C143.6 196.6 143.9 196.6 144 196.8C144.4 196.9 145 197.2 145.4 197.4C146.1 197.7 146.7 198 147.4 198.3C148.3 198.7 149 199 149.6 199.3L150.2 199.6C153.1 200.9 155.6 202.3 157.7 203.9C158.7 204.6 159.7 205.5 160.6 206.2C160.9 206.5 161.2 206.8 161.5 207.1C161.8 207.4 162.1 207.7 162.4 208C170.5 216.2 170.1 225.9 168.7 231.8ZM187.8 130.7L186.9 135.5C185 146.3 180.8 161.4 165.1 165.1C150.1 168.9 146.4 169.6 135.7 170C135.4 170 135.3 170 135 170C127.2 170 112 165.1 109.4 152.8C107.7 144.8 111.1 139.2 116.9 129.7C117.9 128.1 118.9 126.5 119.9 124.6C127.6 111.7 130.5 102.5 132.9 95.1C135.2 87.9 137.2 81.8 142.2 76.9C143.4 75.7 144.7 74.6 146.2 73.6C147.2 72.9 148.2 72.3 149.2 71.7C150.6 71 152.1 70.4 153.7 69.8C157.2 68.6 160.9 68.1 164.7 68.1C172.1 68.1 179.3 70.3 184.5 74.3C186.8 76.2 190.1 79.9 192.2 91.1C193.5 97 191.7 107.4 187.8 130.7ZM299.8 161.6C294.4 170.9 291.4 175.9 286.8 179.8C277.5 187.5 266.7 189.3 257.9 189.3C251.5 189.3 246 188.3 242.9 187.7C233.6 186 216.6 182.9 210.9 169.5C209.7 166.9 209.7 165.2 209.7 163C209.7 160.8 209.7 157.4 208.7 148.8V148.2C208.3 144.3 207.7 140 208.8 134.5L208.9 133.8C212.1 117.5 212.9 114.9 213.7 113.6C215.4 110.4 219.3 109.1 222.5 110.7C225.7 112.3 227 116.1 225.4 119.2C225.1 120.1 224.1 123.7 221.6 136.3L221.5 137C220.8 140.6 221.1 143.2 221.5 146.7V147.3C222.5 156.6 222.5 160.8 222.5 162.9C222.5 163.3 222.5 163.8 222.5 164.1C222.5 164.2 222.5 164.4 222.6 164.4C223.6 166.7 225.6 168.4 228.1 169.9C230.3 171.1 232.6 169 232.1 166.6C229.4 152.4 229.6 136.1 235 126C236.7 122.5 240.2 116.9 243.4 111.5C243.7 110.9 244 110.5 244.4 109.9C244.7 109.5 245 109 245.1 108.6C246.5 106.3 247.8 104.1 248.9 102.4C249 102.1 249.2 102 249.3 101.7C249.4 101.6 249.4 101.4 249.6 101.3C249.9 100.9 250 100.6 250.2 100.3C250.3 100.2 250.3 100 250.5 99.9C250.5 99.9 250.5 99.8 250.6 99.8C250.7 99.7 250.7 99.5 250.9 99.4C251 99.1 251.2 99 251.3 98.8C251.3 98.8 251.3 98.8 251.3 98.7C252 97.5 252.9 96.5 253.6 95.4C255.3 93.1 253.3 90 250.7 91.2C246.1 93.2 243 95.7 242.3 96.1C239.4 98.4 235.4 97.8 233 95.1C230.7 92.2 231.3 88.2 234 85.8C237.3 83.2 255.3 70 276.7 76.3C292.2 80.6 300.3 92.5 303.3 97C305.8 100.6 313.3 111.6 313 126.8C313.5 138.1 308.6 146.5 299.8 161.6Z" fill="white"/>
<path d="M160.5 81.8C159.3 84.4 158 87.7 156.7 91.3C153.4 99.5 149.6 108.9 147.9 112.4C144.9 118.3 142.4 121.9 140.5 125C138.3 128.5 136.6 131.2 135.1 135C132.8 141.7 132.4 149 133.9 157.1C129.9 156.7 123.1 153.8 122.3 150.3C121.7 147.7 123.3 144.8 128.2 136.7C129.2 135.1 130.2 133.4 131.4 131.5C139.8 117.5 143.1 106.9 145.6 99.4C148.3 91 149.5 87.5 153.8 84.6C155.7 83.1 158 82.2 160.5 81.8Z" fill="white"/>
<path d="M152.4 376.7C147.9 386 142.1 394.6 138.7 398.8C135.8 390.8 130.7 372.8 132 358.2C132 357.8 132.1 357.3 132.1 356.9C132.7 352.4 133.8 348.2 136 344.9C137.4 342.7 141.4 341.4 145.7 341.4C149 341.4 152.5 342.1 155.5 343.7C157.1 344.6 159.4 346.3 159.5 351.5C159.9 358.6 156.6 368 152.4 376.7Z" fill="white"/>
<path d="M401.8 272.6C402.1 272.9 402.4 273.3 402.2 273.8C400.9 276.5 399.2 278.4 397.3 280.7C395 283.4 392.4 286.6 389.8 291.5C386.3 298.4 385.2 304.8 384.6 321C383.9 340.1 384.6 350.6 385.2 358.5C385.8 366 386.1 370.5 384.8 377.9C382.1 392.7 375.8 402.5 367.7 414.9C357.7 430.4 347.3 446.4 330.1 451.6C328.5 452 328.5 452 324 452.2C320.1 452.2 313.6 452.2 301.3 452.6C278.9 453.5 267.6 453.8 257.9 455.6C247.8 457.6 242.6 459.6 237.4 461.8C232.8 463.7 228.4 465.4 220 467.2C215.1 468.2 207.6 469.4 182.3 469.4C156 469.4 140.1 469.4 119 467.1C90.2 463.8 75.6 462.2 66.1 457C43.4 444.9 33.8 423.2 17.9 387.1C17.9 387.1 17.9 387 17.8 387C17.7 386.6 18.1 386.1 18.5 386.4C19.2 386.8 20.1 387.3 20.8 387.6C21.5 387.9 22.2 388 23 388.2C24.4 388.5 25.9 388.5 27.5 388.2C27.8 388.2 28.1 388.1 28.2 388.1H28.3C28.6 388 28.9 388.1 29 388.4C30 391.1 31.6 393.6 34.4 395.1C37.1 396.5 40.2 396.5 43.2 396.5C46.2 396.5 49.4 396.2 52.5 395.9C54.1 395.8 55.8 396.5 56.4 398.1C59.1 404.9 62.8 409.8 68 410.5C68.3 410.5 68.7 410.6 69.2 410.6C70.2 410.6 71.7 410.3 73.8 409.2C76.3 407.8 80.2 408.6 82 410.9C83.2 412.2 84.3 413.2 85.5 414.1C90.9 419.6 104 422.3 115 422.3C121.1 422.3 126.4 421.6 129.6 420C134.1 417.8 134.1 414.4 133.9 413.1C133.5 410.6 133.2 408.2 132.9 405.9C132.9 405.6 133.3 405.5 133.5 405.8C134.2 407.2 134.9 409 137.1 409.4C137.4 409.4 137.5 409.5 137.8 409.5C140.8 409.5 145.6 410.5 146.5 413.4C146.9 414.8 147.5 416.3 148.4 417.6C150.3 420.5 154 424 161.4 424.1H162C170.5 424.1 177.2 421.4 181.5 415.9C181.8 415.6 182.1 415.2 182.4 414.7C184 412.4 188.8 412.4 190.8 414.3C193.1 416.5 196 417.5 199.2 417.5C199.8 417.5 200.2 417.5 200.8 417.4C204.6 417 207.9 414.9 210.3 411.5C211.9 409.2 213 406.4 213.9 403.4C214.2 402.5 215.3 402.2 216.1 402.8C217.7 404.2 220.3 405.8 224.2 405.8C225.1 405.8 226.1 405.7 227.2 405.5C234.6 404.1 238.3 397.8 240.1 390.9C240.1 390.6 240.5 390.6 240.7 390.8C242.6 393.1 246.1 395.7 252.1 395.7C252.4 395.7 252.7 395.7 253.1 395.7C256.3 395.6 259 394.1 260.9 391.7C263.2 388.7 264.1 384.3 264.4 380C264.5 378.4 265.6 377 267 376.2C273.2 373.5 280.7 368 282.9 364.1C282.9 364.1 282.9 364.1 282.9 364C283.6 362.8 284.6 361.8 285.9 361.5C290.5 360.6 292.7 359.6 294.6 358.9C296.2 358.2 297.5 357.6 301.1 357C329.6 352.7 335.2 351.6 341.3 347.6C350.6 341.4 351 333 351.4 324.7C351.8 317.8 352.3 309.9 357.6 300.7C359.6 297.4 361.8 293.2 364.3 288.7C368.3 281 374.1 270.5 378.3 264.7C379.3 263.4 381 263 382.5 263.5C391.8 267.1 399.9 271.1 401.8 272.6Z" fill="white"/>
<path d="M124.6 357.3C123.4 367.1 122.7 380.3 124.3 397.5C124.7 402.3 125.3 407.3 126.2 412.4C124.9 413.1 120.8 414.1 113.6 414C103.3 413.9 93.2 411.3 90.2 407.9L89.8 407.5C87.3 405.5 85.6 404.2 85.5 400.6C85.4 399.4 85.9 398.1 87.1 396.4C87.7 395.4 88.5 394.4 89.6 392.9C91.3 390.6 93.5 387.7 95.7 383.9C102.2 373.1 104.7 369.6 107.7 365.4C108 365.1 108.1 364.7 108.4 364.4C110.3 361.9 112.4 358.9 115.6 354C118.1 350.4 120.1 347.5 121.7 345.2C124.4 341.4 126.3 339.4 127.5 338.3C127.4 340 126.9 342.3 126.6 344.5C125.9 348.2 125.2 352.4 124.6 357.3Z" fill="white"/>
<path d="M120 204C120 204.1 119.9 204.1 119.9 204.3C118.6 206.2 117 208.2 115.1 212.4C110.2 223.4 110 229.5 110 234.5C110 237.1 109.9 239.1 109.3 241.6C108.9 243.2 108 245.1 107.1 247.1C104.2 253.8 100.4 262.4 102 274.1C99.7 272.9 96.1 270.3 95.5 269C95.4 268.4 95.2 267.7 95.1 267.1C94.2 263.5 93.8 261 96.1 255.7C102.2 241.7 102.9 238.2 103.5 234.4C103.6 233.5 103.6 233 103.9 231.8C105.2 226.3 105.9 221.5 106.4 217.6C107.3 211.8 107.8 207.9 109.7 205C110.4 204 112.4 203.4 115.3 203.4C116.5 203.4 117.8 203.5 119.2 203.7H119.5C119.7 204 119.9 204 120 204Z" fill="white"/>
<path d="M111.9 343C111.6 339.7 111 336.2 109.7 333C109.6 332.9 109.3 332 109.1 331.8C108.8 331.4 108.7 331.1 108.4 330.6C108.3 330.5 108.1 330.3 108 330.2C107.9 330.1 107.6 329.8 107.4 329.6L107.3 329.5C107.2 329.4 107 329.4 106.9 329.2C106.6 329.1 106.5 328.9 106.2 328.8C106.1 328.8 105.9 328.7 105.8 328.7H105.7C105.7 328.7 105.7 328.7 105.6 328.7C105.6 328.7 105.6 328.7 105.5 328.7C105.4 328.7 105.5 328.7 105.5 328.7C105.4 328.7 105.4 328.7 105.4 328.7C103.4 328 101.5 327.3 99.3 326.8C99.3 326.8 99.3 326.8 99.2 326.8C98.9 326.8 98.5 326.8 98.5 326.8C98.2 326.8 97.9 326.8 97.6 326.8C97.5 326.8 97.3 326.8 97.2 326.8H97.1H97C97 326.8 97 326.8 96.9 326.8C96.5 326.9 95.9 327.1 95.5 327.2C95.4 327.3 95.1 327.3 94.9 327.5C94.8 327.6 94.6 327.8 94.3 327.8C94 328.1 93.9 328.2 93.6 328.5C93.5 328.6 93.3 328.8 93.2 329.1C93.2 329.2 93.1 329.2 93.1 329.4C92.4 330.6 91.5 331.9 90.6 333C88.7 335.9 86.7 338.8 84.8 341.7C83.1 344.3 81.2 346.9 79.4 349.5C78.4 350.9 77.4 352.4 76.5 353.8C76.4 354.1 76.2 354.2 76.1 354.5C77.3 354.8 78.4 354.9 79.6 355.2C82.2 355.6 84.8 356.2 87.6 356.5C93.1 357.2 98.7 357.7 104.4 357.4C104.7 357.4 105 357.4 105.1 357.4C106.4 355.5 108 353.2 110 350.2C111.2 348.5 112.2 346.9 113.2 345.4C112.3 344.7 112.1 344 111.9 343Z" fill="white"/>
<path d="M92.2 365.9C91.8 370.1 87 381.2 79.5 391.6C73.3 400.4 69.5 402.4 68.8 402.6C65.8 402.2 62.9 394.8 60.6 387.4C59.6 384.4 58.9 381.5 58.1 378.9C56.5 373.3 56.2 365.7 56.5 361.1C62.7 364.6 73.9 365.6 89.2 365.6C90.2 365.7 91.2 365.9 92.2 365.9Z" fill="white"/>
<path d="M81.2 330.9C81.1 331 81.1 331.2 81.1 331.2C78.5 335.1 75.7 339 73.1 342.9C71.7 344.9 70.4 346.9 68.9 349C68.2 350.2 67.2 351.3 66.3 352.6C64.1 352 62 351.6 59.8 351C58.1 350.4 56.3 350 54.6 349.3C54.3 349.2 53.9 349 53.6 348.9C53.3 348.3 52.9 347.7 52.4 347.5C53 346.2 53.7 344.9 54.3 343.6C55.5 341.3 56.8 339 58.1 336.7C60.4 332.7 63.3 328.5 67.4 325.9C67.5 325.8 67.8 325.6 68 325.5C69.6 324.5 71 323.9 73.1 323.6C73.4 323.6 74.7 323.6 75.3 323.6C75.4 323.6 75.4 323.6 75.6 323.6C75.6 323.6 75.7 323.6 75.9 323.7C76.3 323.8 76.8 324 77.3 324.1C77.4 324.2 77.6 324.2 77.7 324.4C78.1 324.7 78.6 324.8 78.9 325.1C78.3 324.7 79.8 326.1 79.8 326C80.5 327.2 81 328.7 81.2 330.9Z" fill="white"/>
<path d="M60.1 319.7C55.2 323.7 51.6 329.1 48.7 334.7C47 337.9 45.5 340.9 43.9 344.1C43.8 344.4 43.6 344.7 43.5 345.1C42.1 344.8 40.5 344.4 39 343.9C37.4 343.5 36 342.9 34.4 342.2C33.7 341.9 33.1 341.5 32.4 341.2C33.8 338.5 35.6 335.7 37.3 333.1C39.6 329.5 42.2 325.9 45 322.4C46 321.1 47.2 319.7 48.6 318.8C50 317.9 51.9 318.1 53.7 318.2C55.6 318.3 57.5 318.3 59.2 319.1C59.6 319.3 60 319.6 60.1 319.7Z" fill="white"/>
<path d="M52.3 385.8C52 385.9 51.9 386.2 51.7 386.5C51.6 386.5 51.4 386.6 51.3 386.6C50.1 386.7 48.8 386.7 47.7 386.9C45.4 387 43.1 387.2 40.8 387C39.5 387 38.3 386.7 37.8 386C36.9 384.7 36.6 382.5 36.4 380.8C35 372.4 34.7 363.6 35.8 355.2C40.1 356.8 44.8 357.9 49.4 358.8C48.4 366.5 50.1 377.7 51.1 381.2C51.5 382.5 51.9 384.2 52.3 385.8Z" fill="white"/>
<path d="M38.3 317C34.4 321.8 30.9 326.8 27.7 332C26.4 334.2 25 336.3 23.9 338.7C22.3 338.3 21 337.7 19.6 336.7C18.4 336 17.4 335.3 16.3 334.4C16 334.1 15.3 333.5 14.9 333.2C14.8 333.1 14.8 333.1 14.6 332.9C14.9 331.9 15.6 330.7 15.9 330C16.8 328.3 17.6 326.5 18.5 324.8C20.2 321.6 22.3 318.4 24.6 315.5C25.5 314.5 26.2 313 27.6 312.8C28.8 312.5 30.3 312.7 31.4 312.8C34.1 313.5 36.4 314.8 38.3 317Z" fill="white"/>
<path d="M8.39999 337.8C8.39999 337.5 8.79999 337.5 8.99999 337.8C9.99999 339.2 11.5 340.4 12.9 341.6C13.6 342.2 14.2 342.6 14.9 343C15 343.1 15 343.1 15 343.3C13.4 349.8 12.4 356.6 12.3 363.4C12.3 363.8 11.7 363.8 11.6 363.5C9.69999 355.4 6.99999 342.6 8.39999 337.8Z" fill="white"/>
<path d="M27.3 352.1C26.6 357.9 26.1 363.7 26.4 369.6C26.5 372.8 26.8 376 27.3 379.1C26.6 379 25.9 379 25.1 379C25.2 379 24.8 379 24.7 379C24.6 379 24.4 379 24.4 379C23.5 378.9 23.5 378.7 22.8 378.3C21.9 377.7 21.1 376.7 20.5 375.7C18.9 373 18.6 369.8 18.5 366.6C18.2 360.5 18.8 354.6 19.9 348.7C20.9 349.1 21.6 349.4 23.1 350C24.5 351 26 351.5 27.3 352.1Z" fill="white"/>
</svg>
