<svg width="500" height="500" viewBox="0 0 500 500" fill="none" xmlns="http://www.w3.org/2000/svg">
<path d="M250 0C111.9 0 0 111.9 0 250C0 388.1 111.9 500 250 500C388.1 500 500 388.1 500 250C500 111.9 388.1 0 250 0ZM395.3 164.5V203L362.4 222.4V183.9L329.7 164.5L362.4 145.1L395.3 164.5ZM249.9 79.1L338.9 131.5L306.2 150.9L249.9 117.7L193.7 150.9L161 131.5L249.9 79.1ZM282.8 164.5L249.9 183.9L217.2 164.5L249.9 145.1L282.8 164.5ZM104.7 164.5L137.4 145.1L170.3 164.5L137.4 183.9V222.4L104.7 203V164.5ZM193.8 387.9L104.8 335.7V230.7L137.5 250L137.7 316.1L193.9 349.2V387.9H193.8ZM193.8 321.6L161 302.4V263.7L193.7 283.1V321.6H193.8ZM282.8 401.5L249.9 420.9L217.2 401.5V363L249.9 382.4L282.8 363V401.5V401.5ZM282.8 335.6L250.1 354.8L217.4 335.6V269.3L161.1 236.2V197.5L194 178.1L250 211.3L306.3 178.1L339.2 197.5H339L339.2 236.2L282.9 269.3V335.6H282.8ZM306.2 283.1L338.9 263.7V302.4L306.2 321.6V283.1ZM395.3 335.6L306.3 387.8V349.1L362.4 316.1L362.6 250L395.3 230.6V335.6Z" fill="white"/>
</svg>
