<svg width="500" height="500" viewBox="0 0 500 500" fill="none" xmlns="http://www.w3.org/2000/svg">
<path d="M10.271 264.023C10.271 255.342 10.271 246.661 10.271 237.98C10.46 237.008 10.751 236.044 10.822 235.064C14.54 183.884 32.035 137.989 64.78 98.439C105.481 49.279 157.844 20.64 221.15 12.148C226.525 11.427 231.924 10.892 237.312 10.271C245.993 10.271 254.674 10.271 263.355 10.271C264.321 10.459 265.28 10.756 266.254 10.818C284.647 11.993 302.653 15.316 320.286 20.639C413.408 48.754 480.552 130.608 489.876 227.32C494.198 272.149 486.602 314.941 466.972 355.38C412.392 467.818 282.197 519.421 165.167 475.286C82.304 444.036 22.704 368.065 12.142 280.216C11.493 274.821 10.893 269.421 10.271 264.023ZM323.76 254.871C340.287 250.709 350.641 240.276 355.017 223.649C360.68 202.134 354.894 185.297 337.049 172.191C327.67 165.302 317.145 160.665 306.273 156.786C304.198 156.046 303.728 155.143 304.231 153.198C306.109 145.93 307.943 138.651 309.766 131.37C311.313 125.19 312.822 119 314.428 112.49C305.543 110.278 297.012 108.154 288.249 105.972C284.716 120.091 281.241 133.978 277.702 148.119C270.497 146.406 263.562 144.757 256.468 143.071C260.031 128.734 263.488 114.825 267.007 100.667C258.151 98.46 249.626 96.335 240.977 94.179C240.589 95.335 240.254 96.144 240.044 96.985C236.91 109.526 233.723 122.054 230.732 134.629C230.171 136.988 229.39 137.399 227.11 136.797C218.033 134.402 208.904 132.204 199.79 129.953C192.2 128.078 184.604 126.23 176.807 124.321C174.452 133.754 172.163 142.925 169.837 152.241C172.16 152.805 174.309 153.262 176.422 153.851C182.158 155.453 188.071 156.639 193.555 158.871C199.796 161.412 202.358 167.775 200.742 174.288C196.462 191.539 192.199 208.794 187.9 226.04C182.587 247.35 177.169 268.635 171.972 289.973C170.815 294.723 165.58 299.217 159.99 297.592C153.566 295.724 146.964 294.467 140.3 292.912C136.019 302.78 131.767 312.581 127.379 322.696C145.219 327.209 162.814 331.661 180.471 336.127C176.788 350.97 173.214 365.369 169.586 379.991C178.495 382.204 187.001 384.317 195.622 386.459C196.02 384.984 196.32 383.935 196.586 382.877C199.702 370.466 202.84 358.061 205.89 345.634C206.268 344.096 206.7 343.114 208.492 343.592C214.757 345.261 221.024 346.924 227.687 348.694C224.114 363.12 220.58 377.386 217.005 391.818C225.957 394.047 234.457 396.164 242.987 398.289C243.365 397.17 243.705 396.355 243.916 395.507C247.066 382.87 250.255 370.243 253.285 357.578C253.845 355.237 254.705 354.451 257.12 355.05C259.685 355.687 262.35 355.914 264.968 356.338C278.52 358.53 292.11 359.329 305.692 356.811C317.956 354.537 328.453 349.047 336.315 339.068C344.771 328.335 349.118 315.968 350.978 302.587C352.886 288.859 349.422 276.747 339.373 267.093C334.649 262.555 329.032 258.947 323.76 254.871ZM229.444 254.07C224.792 272.593 220.17 291.123 215.487 309.638C215.012 311.517 215.821 311.849 217.414 312.196C227.981 314.495 238.45 317.328 249.094 319.156C258.613 320.79 268.294 321.029 277.879 318.799C296.738 314.41 302.192 293.388 292.837 280.683C288.448 274.722 282.501 270.684 275.966 267.449C261.376 260.225 245.55 257.085 229.932 253.444C229.704 253.728 229.492 253.879 229.444 254.07ZM249.441 230.363C261.118 233.126 272.855 235.258 284.932 233.314C302.435 230.497 307.61 215.082 304.683 203.852C302.619 195.932 296.772 190.997 289.948 187.112C277.954 180.283 264.573 177.687 251.371 174.553C249.365 174.077 249.012 175.351 248.638 176.9C247.01 183.653 245.279 190.382 243.604 197.124C241.16 206.959 238.731 216.797 236.212 226.97C240.926 228.184 245.165 229.351 249.441 230.363Z" fill="white"/>
</svg>
