<svg width="366" height="301" viewBox="0 0 366 301" fill="none" xmlns="http://www.w3.org/2000/svg">
<path d="M365.525 249.123V52.3262C365.525 23.9824 342.467 0.923828 314.127 0.923828L51.4785 0.923828C23.1348 0.923828 0.0761719 23.9863 0.0761719 52.3262V249.123C0.0761719 277.467 23.1387 300.525 51.4785 300.525H314.127C342.467 300.525 365.525 277.467 365.525 249.123V249.123ZM314.127 15.9238C334.197 15.9238 350.525 32.252 350.525 52.3262V98.0605H323.057C318.916 98.0605 315.557 101.416 315.557 105.561C315.557 109.701 318.916 113.061 323.057 113.061H350.525V188.389H259.381C258.123 188.389 256.908 188.201 255.764 187.857C255.584 187.791 255.4 187.729 255.213 187.678C250.338 185.955 246.834 181.299 246.834 175.842V125.607C246.834 120.146 250.338 115.494 255.213 113.771C255.4 113.717 255.584 113.658 255.764 113.592C256.908 113.244 258.123 113.061 259.381 113.061H288.033C292.174 113.061 295.533 109.701 295.533 105.561C295.533 101.416 292.174 98.0605 288.033 98.0605H260.658V94.6191C260.658 66.5098 244.061 40.9355 218.377 29.4707C217.252 28.9668 216.521 27.8301 216.521 26.5762V15.9238L314.127 15.9238ZM15.0762 98.0605V52.3262C15.0762 32.2559 31.4043 15.9238 51.4785 15.9238L149.08 15.9238V26.5762C149.08 27.8301 148.354 28.9668 147.225 29.4707C121.541 40.9395 104.943 66.5098 104.943 94.623V98.0605H15.0762ZM51.4785 285.525C31.4043 285.525 15.0762 269.197 15.0762 249.123V203.389H45.2363C49.3809 203.389 52.7363 200.033 52.7363 195.889C52.7363 191.748 49.3809 188.389 45.2363 188.389H15.0762V113.061L106.225 113.061C107.479 113.061 108.693 113.248 109.838 113.592C110.018 113.658 110.205 113.721 110.393 113.775C115.268 115.498 118.771 120.15 118.771 125.607V175.842C118.771 181.299 115.268 185.955 110.393 187.678C110.205 187.732 110.018 187.791 109.838 187.861C108.693 188.205 107.479 188.389 106.225 188.389H80.2598C76.1191 188.389 72.7598 191.748 72.7598 195.889C72.7598 200.033 76.1191 203.389 80.2598 203.389H104.943V206.83C104.943 234.939 121.541 260.514 147.225 271.979C148.354 272.482 149.08 273.619 149.08 274.873V285.525H51.4785ZM164.08 285.525V274.873C164.08 267.709 159.865 261.197 153.342 258.283C133.053 249.225 119.943 229.029 119.943 206.83V199.725C128.201 194.959 133.771 186.041 133.771 175.842V125.607C133.771 115.412 128.201 106.49 119.943 101.729V94.623C119.943 72.4238 133.053 52.2246 153.342 43.1699C159.865 40.2559 164.08 33.7441 164.08 26.5762V15.9238H201.521V26.5762C201.521 33.7402 205.736 40.252 212.26 43.166C232.549 52.2246 245.658 72.4199 245.658 94.6191V101.725C237.4 106.49 231.834 115.408 231.834 125.607V175.842C231.834 186.037 237.4 194.959 245.658 199.721V206.826C245.658 229.029 232.549 249.225 212.26 258.279C205.736 261.193 201.521 267.705 201.521 274.873V285.525H164.08ZM216.521 285.525V274.873C216.521 273.619 217.252 272.482 218.377 271.979C244.064 260.514 260.658 234.939 260.658 206.83V203.389H350.525V249.123C350.525 269.197 334.197 285.525 314.127 285.525H216.521Z" fill="white"/>
</svg>
