<svg width="125" height="160" viewBox="0 0 125 160" fill="none" xmlns="http://www.w3.org/2000/svg">
<g clip-path="url(#clip0_105_23)">
<path d="M7.27954 113.423C5.89022 113.44 4.5233 113.072 3.3294 112.362C2.13551 111.651 1.161 110.625 0.513238 109.395C-0.134523 108.166 -0.430385 106.782 -0.341739 105.395C-0.253092 104.009 0.216621 102.674 1.01564 101.537C5.33589 95.3655 7.65319 88.0145 7.65319 80.4812C7.65319 72.9478 5.33589 65.5968 1.01564 59.4254C-0.0583154 57.7872 -0.453238 55.7956 -0.0856672 53.8716C0.281904 51.9476 1.38317 50.2418 2.98538 49.1149C4.58758 47.9879 6.56518 47.5281 8.5002 47.8326C10.4352 48.1371 12.1761 49.182 13.3548 50.7465C19.482 59.4512 22.7706 69.8362 22.7706 80.4812C22.7706 91.1261 19.482 101.511 13.3548 110.216C12.6682 111.193 11.7594 111.993 10.7033 112.551C9.64713 113.109 8.47374 113.407 7.27954 113.423Z" fill="white"/>
<path d="M36.5614 128.442C35.2469 128.421 33.9607 128.057 32.8302 127.386C31.6996 126.715 30.764 125.76 30.1158 124.616C29.4677 123.473 29.1296 122.179 29.135 120.865C29.1404 119.55 29.4891 118.26 30.1466 117.121C36.9054 106.164 40.4847 93.5438 40.4847 80.6699C40.4847 67.7959 36.9054 55.1755 30.1466 44.2185C29.6213 43.3761 29.2671 42.4384 29.1042 41.4592C28.9413 40.4799 28.9729 39.4781 29.1971 38.511C29.4214 37.5439 29.8339 36.6304 30.4112 35.8228C30.9884 35.0151 31.7192 34.3291 32.5616 33.8038C33.404 33.2785 34.3416 32.9243 35.3209 32.7614C36.3002 32.5985 37.302 32.6301 38.2691 32.8543C39.2362 33.0786 40.1496 33.4911 40.9573 34.0684C41.7649 34.6457 42.451 35.3764 42.9762 36.2188C51.2151 49.5678 55.5785 64.9454 55.5785 80.6321C55.5785 96.3189 51.2151 111.697 42.9762 125.046C42.2786 126.105 41.3251 126.972 40.2039 127.565C39.0827 128.159 37.8299 128.46 36.5614 128.442V128.442Z" fill="white"/>
<path d="M66.9753 144.139C65.6464 144.125 64.3447 143.761 63.2019 143.083C62.3465 142.58 61.5986 141.914 61.001 141.122C60.4033 140.33 59.9676 139.429 59.7188 138.468C59.4699 137.508 59.4129 136.508 59.5508 135.526C59.6888 134.543 60.019 133.598 60.5227 132.743C69.79 116.885 74.6739 98.8485 74.6739 80.4812C74.6739 62.114 69.79 44.077 60.5227 28.2191C59.7012 26.5064 59.5558 24.5468 60.1156 22.7316C60.6753 20.9163 61.899 19.3789 63.5424 18.4262C65.1858 17.4735 67.128 17.1756 68.9814 17.5919C70.8348 18.0083 72.463 19.1082 73.5411 20.6722C84.1679 38.854 89.7684 59.5348 89.7684 80.5944C89.7684 101.654 84.1679 122.335 73.5411 140.517C72.8573 141.64 71.8917 142.566 70.74 143.201C69.5883 143.836 68.2905 144.16 66.9753 144.139V144.139Z" fill="white"/>
<path d="M98.6722 160.403C97.3502 160.412 96.0489 160.073 94.8988 159.421C94.0358 158.932 93.278 158.276 92.6686 157.493C92.0592 156.71 91.6102 155.814 91.3473 154.858C91.0844 153.901 91.0129 152.901 91.1366 151.917C91.2604 150.932 91.5772 149.982 92.0687 149.12C103.939 128.184 110.178 104.529 110.178 80.4623C110.178 56.3957 103.939 32.7402 92.0687 11.8046C91.0679 10.0632 90.7999 7.99563 91.3235 6.05665C91.8472 4.11767 93.1197 2.46613 94.861 1.46535C96.6024 0.464576 98.67 0.196541 100.609 0.720207C102.548 1.24387 104.199 2.51634 105.2 4.25769C118.357 27.4665 125.273 53.6894 125.273 80.3679C125.273 107.046 118.357 133.269 105.2 156.478C104.558 157.652 103.615 158.635 102.468 159.324C101.32 160.014 100.011 160.386 98.6722 160.403V160.403Z" fill="white"/>
</g>
<defs>
<clipPath id="clip0_105_23">
<rect width="125" height="160" fill="white"/>
</clipPath>
</defs>
</svg>
